<svg width="33" height="33" viewBox="0 0 33 33" fill="none" xmlns="http://www.w3.org/2000/svg">
<circle cx="16.5741" cy="16.4647" r="16.2069" fill="#039D2E"/>
<path fill-rule="evenodd" clip-rule="evenodd" d="M18.1872 13.2238C18.1872 15.014 16.736 16.4652 14.9459 16.4652C13.1557 16.4652 11.7045 15.014 11.7045 13.2238C11.7045 11.4336 13.1557 9.98242 14.9459 9.98242C16.736 9.98242 18.1872 11.4336 18.1872 13.2238ZM14.9459 17.2755C11.8131 17.2755 9.27344 19.0895 9.27344 21.3272C9.27344 22.2223 9.99905 22.9479 10.8941 22.9479H18.9976C19.8927 22.9479 20.6183 22.2223 20.6183 21.3272C20.6183 19.0895 18.0786 17.2755 14.9459 17.2755ZM21.4286 11.6032C21.8762 11.6032 22.239 11.966 22.239 12.4135V13.2239H23.0493C23.4968 13.2239 23.8596 13.5867 23.8596 14.0342C23.8596 14.4818 23.4968 14.8446 23.0493 14.8446H22.239V15.6549C22.239 16.1024 21.8762 16.4652 21.4286 16.4652C20.9811 16.4652 20.6183 16.1024 20.6183 15.6549V14.8446H19.8079C19.3604 14.8446 18.9976 14.4818 18.9976 14.0342C18.9976 13.5867 19.3604 13.2239 19.8079 13.2239H20.6183V12.4135C20.6183 11.966 20.9811 11.6032 21.4286 11.6032Z" fill="white"/>
</svg>
