<svg width="33" height="33" viewBox="0 0 33 33" fill="none" xmlns="http://www.w3.org/2000/svg">
<circle cx="16.4139" cy="16.413" r="16.2069" fill="#C9002C"/>
<path d="M8 19.9925V22.9995C8 23.2648 8.10536 23.5191 8.29289 23.7067C8.48043 23.8942 8.73478 23.9995 9 23.9995H23C23.2652 23.9995 23.5196 23.8942 23.7071 23.7067C23.8946 23.5191 24 23.2648 24 22.9995V19.9925M23.352 15.4355L20.305 18.6335L17.257 15.4355" stroke="white" stroke-linecap="round" stroke-linejoin="round"/>
<path d="M10.3984 17.958V12.952C10.3982 12.3016 10.5261 11.6576 10.7749 11.0566C11.0236 10.4557 11.3884 9.90971 11.8483 9.44982C12.3081 8.98993 12.8542 8.62518 13.4551 8.37641C14.056 8.12765 14.7001 7.99974 15.3504 8C16.0009 7.99961 16.6451 8.12742 17.2461 8.37613C17.8471 8.62484 18.3933 8.98957 18.8533 9.44947C19.3133 9.90937 19.6781 10.4554 19.9269 11.0564C20.1758 11.6574 20.3037 12.3015 20.3034 12.952V17.958" stroke="white" stroke-linecap="round" stroke-linejoin="round"/>
</svg>
