<svg width="136" height="41" viewBox="0 0 136 41" fill="none" xmlns="http://www.w3.org/2000/svg">
<path d="M124.453 0.550911H10.9598C10.5461 0.550911 10.1373 0.550911 9.72472 0.552911C9.37934 0.554911 9.03671 0.560721 8.688 0.565611C7.93046 0.573513 7.1747 0.632588 6.42729 0.742321C5.68092 0.854444 4.95794 1.06583 4.28279 1.36932C3.60847 1.67538 2.99232 2.07308 2.4567 2.54798C1.91827 3.02155 1.46944 3.56893 1.12748 4.16907C0.784578 4.76802 0.546808 5.40985 0.422383 6.07239C0.296774 6.7341 0.229184 7.40343 0.220217 8.07439C0.209747 8.38099 0.208642 8.68861 0.203125 8.99525V32.1095C0.208642 32.42 0.209747 32.7208 0.220217 33.0314C0.229186 33.7023 0.296777 34.3716 0.422383 35.0333C0.546464 35.6962 0.784249 36.3384 1.12748 36.9376C1.46929 37.5358 1.91817 38.081 2.4567 38.5519C2.99029 39.0289 3.60684 39.4269 4.28279 39.7306C4.95794 40.0349 5.68084 40.2476 6.42729 40.3614C7.17483 40.4703 7.93051 40.5294 8.688 40.5382C9.03671 40.545 9.37934 40.5489 9.72472 40.5489C10.1373 40.5509 10.5461 40.5509 10.9598 40.5509H124.453C124.858 40.5509 125.27 40.5509 125.675 40.5489C126.019 40.5489 126.372 40.545 126.716 40.5382C127.472 40.5298 128.226 40.4707 128.972 40.3614C129.721 40.2468 130.446 40.0342 131.125 39.7306C131.8 39.4267 132.416 39.0288 132.949 38.5519C133.486 38.0791 133.936 37.5344 134.282 36.9376C134.623 36.338 134.858 35.6959 134.981 35.0333C135.106 34.3715 135.176 33.7024 135.19 33.0314C135.194 32.7208 135.194 32.42 135.194 32.1095C135.203 31.7462 135.203 31.3849 135.203 31.0157V10.087C135.203 9.72083 135.203 9.35755 135.194 8.99525C135.194 8.68861 135.194 8.38099 135.19 8.07435C135.176 7.40333 135.106 6.73415 134.981 6.07235C134.858 5.41019 134.622 4.76841 134.282 4.16903C133.586 2.96611 132.481 1.98694 131.125 1.36923C130.446 1.06648 129.721 0.855152 128.972 0.742231C128.226 0.632014 127.472 0.572919 126.716 0.565471C126.372 0.560591 126.019 0.554731 125.675 0.552781C125.27 0.550781 124.858 0.550781 124.453 0.550781V0.550911Z" fill="#1D1D1D"/>
<path d="M9.63118 39.6789C9.28686 39.6789 8.95086 39.675 8.60924 39.6682C7.90155 39.66 7.19551 39.6055 6.49691 39.5051C5.84551 39.4058 5.21447 39.2211 4.62462 38.957C4.04017 38.6952 3.50711 38.3519 3.04586 37.9402C2.57793 37.5334 2.18835 37.0616 1.89257 36.5434C1.59354 36.0219 1.38658 35.4629 1.27893 34.8859C1.16267 34.2659 1.09976 33.6389 1.09076 33.0105C1.0836 32.7996 1.07422 32.0972 1.07422 32.0972V8.99182C1.07422 8.99182 1.08421 8.30027 1.09082 8.09709C1.09944 7.46964 1.16197 6.84369 1.27789 6.22463C1.38574 5.64603 1.59286 5.08541 1.89205 4.56218C2.18675 4.04439 2.57416 3.57221 3.03927 3.16394C3.50386 2.7518 4.03863 2.40671 4.62406 2.14126C5.21256 1.87809 5.8424 1.69469 6.49249 1.59721C7.19338 1.49575 7.90187 1.4409 8.61202 1.43311L9.63174 1.4209H125.771L126.803 1.4336C127.507 1.441 128.209 1.49536 128.903 1.59623C129.56 1.69493 130.196 1.87961 130.792 2.14419C131.964 2.67915 132.919 3.5255 133.521 4.56463C133.815 5.08424 134.019 5.64029 134.126 6.21389C134.243 6.83802 134.309 7.4689 134.322 8.10149C134.325 8.38475 134.325 8.68902 134.325 8.99182C134.334 9.3669 134.334 9.7239 134.334 10.0838V31.0169C134.334 31.3803 134.334 31.7348 134.325 32.0923C134.325 32.4176 134.325 32.7155 134.321 33.0222C134.308 33.6435 134.243 34.2631 134.128 34.8761C134.022 35.4573 133.816 36.0206 133.517 36.5464C133.22 37.059 132.832 37.5267 132.37 37.9324C131.908 38.3463 131.374 38.6916 130.788 38.9551C130.195 39.2212 129.559 39.4066 128.903 39.5051C128.205 39.606 127.499 39.6606 126.791 39.6682C126.46 39.675 126.113 39.6789 125.777 39.6789L124.552 39.6809L9.63118 39.6789Z" fill="black"/>
<path d="M33.0004 20.8516C33.0112 20.0169 33.2329 19.1986 33.6449 18.4726C34.0569 17.7467 34.6459 17.1367 35.357 16.6995C34.9053 16.0544 34.3093 15.5234 33.6165 15.1489C32.9237 14.7743 32.153 14.5665 31.3658 14.5419C29.6866 14.3656 28.0586 15.5467 27.2029 15.5467C26.3307 15.5467 25.0132 14.5594 23.5944 14.5885C22.6768 14.6182 21.7824 14.8851 20.9985 15.3631C20.2147 15.8412 19.568 16.5141 19.1215 17.3164C17.1875 20.6648 18.6301 25.5859 20.4827 28.2925C21.4096 29.6178 22.4929 31.0983 23.9103 31.0458C25.2974 30.9883 25.8154 30.1613 27.4897 30.1613C29.1485 30.1613 29.6345 31.0458 31.0807 31.0124C32.5691 30.9883 33.5069 29.6812 34.4013 28.3433C35.0672 27.3989 35.5797 26.3552 35.9197 25.2508C35.055 24.885 34.317 24.2729 33.7979 23.4906C33.2788 22.7083 33.0014 21.7905 33.0004 20.8516Z" fill="white"/>
<path d="M30.27 12.7616C31.0815 11.7874 31.4813 10.5352 31.3845 9.271C30.1447 9.40122 28.9994 9.99378 28.1769 10.9306C27.7748 11.3883 27.4668 11.9207 27.2706 12.4975C27.0743 13.0742 26.9937 13.684 27.0332 14.292C27.6534 14.2984 28.2669 14.164 28.8275 13.8989C29.3882 13.6338 29.8814 13.2449 30.27 12.7616Z" fill="white"/>
<path d="M50.5352 27.6905H45.8018L44.665 31.0469H42.6602L47.1436 18.6289H49.2266L53.71 31.0469H51.6709L50.5352 27.6905ZM46.292 26.1416H50.044L48.1944 20.6944H48.1426L46.292 26.1416Z" fill="white"/>
<path d="M63.3916 26.5207C63.3916 29.3342 61.8858 31.1418 59.6133 31.1418C59.0377 31.1719 58.4652 31.0393 57.9614 30.7592C57.4576 30.479 57.0428 30.0627 56.7647 29.5578H56.7217V34.0422H54.8633V21.9934H56.6621V23.4992H56.6963C56.9873 22.9968 57.409 22.5826 57.9166 22.3007C58.4243 22.0189 58.9988 21.8799 59.5791 21.8986C61.8769 21.8987 63.3916 23.7151 63.3916 26.5207ZM61.4815 26.5207C61.4815 24.6877 60.5342 23.4826 59.0889 23.4826C57.669 23.4826 56.7139 24.7131 56.7139 26.5207C56.7139 28.3449 57.669 29.5666 59.0889 29.5666C60.5342 29.5666 61.4815 28.3703 61.4815 26.5207Z" fill="white"/>
<path d="M73.3565 26.5207C73.3565 29.3342 71.8506 31.1418 69.5782 31.1418C69.0025 31.1719 68.43 31.0393 67.9262 30.7592C67.4224 30.479 67.0077 30.0627 66.7295 29.5578H66.6865V34.0422H64.8281V21.9934H66.6269V23.4992H66.6611C66.9521 22.9968 67.3738 22.5826 67.8814 22.3007C68.3891 22.0189 68.9636 21.8799 69.5439 21.8986C71.8418 21.8986 73.3565 23.715 73.3565 26.5207ZM71.4463 26.5207C71.4463 24.6877 70.499 23.4826 69.0537 23.4826C67.6338 23.4826 66.6787 24.7131 66.6787 26.5207C66.6787 28.3449 67.6338 29.5666 69.0537 29.5666C70.4991 29.5666 71.4463 28.3703 71.4463 26.5207H71.4463Z" fill="white"/>
<path d="M79.9414 27.587C80.0791 28.8184 81.2754 29.627 82.9102 29.627C84.4766 29.627 85.6035 28.8184 85.6035 27.708C85.6035 26.7441 84.9239 26.167 83.3145 25.7715L81.7051 25.3838C79.4248 24.833 78.3662 23.7666 78.3662 22.0361C78.3662 19.8936 80.2334 18.4219 82.8848 18.4219C85.5088 18.4219 87.3076 19.8936 87.3682 22.0361H85.4922C85.3799 20.7969 84.3555 20.0488 82.8584 20.0488C81.3613 20.0488 80.3369 20.8057 80.3369 21.9072C80.3369 22.7852 80.9912 23.3018 82.5918 23.6972L83.96 24.0332C86.5078 24.6357 87.5664 25.6592 87.5664 27.4756C87.5664 29.7988 85.7158 31.2539 82.7725 31.2539C80.0186 31.2539 78.1592 29.833 78.0391 27.5869L79.9414 27.587Z" fill="white"/>
<path d="M91.5781 19.8506V21.9932H93.2998V23.4648H91.5781V28.4561C91.5781 29.2314 91.9228 29.5928 92.6797 29.5928C92.8841 29.5892 93.0881 29.5749 93.291 29.5498V31.0127C92.9507 31.0762 92.6049 31.105 92.2588 31.0986C90.4258 31.0986 89.7109 30.4101 89.7109 28.6543V23.4648H88.3945V21.9932H89.7109V19.8506H91.5781Z" fill="white"/>
<path d="M94.2969 26.5205C94.2969 23.6719 95.9746 21.8818 98.5908 21.8818C101.216 21.8818 102.886 23.6718 102.886 26.5205C102.886 29.377 101.225 31.1592 98.5908 31.1592C95.958 31.1592 94.2969 29.3769 94.2969 26.5205ZM100.992 26.5205C100.992 24.5664 100.097 23.4131 98.5908 23.4131C97.085 23.4131 96.1904 24.5752 96.1904 26.5205C96.1904 28.4824 97.085 29.627 98.5908 29.627C100.097 29.627 100.992 28.4824 100.992 26.5205H100.992Z" fill="white"/>
<path d="M104.418 21.9933H106.19V23.5343H106.233C106.353 23.053 106.635 22.6277 107.032 22.3298C107.428 22.0319 107.916 21.8796 108.411 21.8985C108.625 21.8978 108.839 21.9211 109.048 21.9679V23.7062C108.778 23.6236 108.495 23.5856 108.213 23.5939C107.943 23.5829 107.674 23.6305 107.424 23.7334C107.174 23.8363 106.949 23.992 106.765 24.1899C106.581 24.3878 106.443 24.6232 106.358 24.8798C106.274 25.1365 106.246 25.4084 106.276 25.6769V31.047H104.418L104.418 21.9933Z" fill="white"/>
<path d="M117.616 28.3877C117.366 30.0312 115.766 31.1592 113.718 31.1592C111.084 31.1592 109.449 29.3945 109.449 26.5635C109.449 23.7236 111.093 21.8818 113.64 21.8818C116.145 21.8818 117.72 23.6025 117.72 26.3477V26.9844H111.325V27.0967C111.296 27.4299 111.337 27.7655 111.448 28.0814C111.558 28.3972 111.734 28.686 111.964 28.9286C112.195 29.1711 112.474 29.3619 112.784 29.4882C113.093 29.6145 113.426 29.6734 113.761 29.6611C114.2 29.7023 114.641 29.6006 115.017 29.3711C115.394 29.1417 115.687 28.7968 115.852 28.3877L117.616 28.3877ZM111.334 25.6855H115.86C115.877 25.3859 115.832 25.0861 115.727 24.8049C115.622 24.5237 115.461 24.2672 115.252 24.0514C115.044 23.8356 114.793 23.6653 114.515 23.5511C114.238 23.4369 113.94 23.3812 113.64 23.3877C113.337 23.3859 113.037 23.444 112.757 23.5588C112.477 23.6735 112.222 23.8426 112.008 24.0562C111.794 24.2699 111.624 24.5238 111.508 24.8035C111.392 25.0831 111.333 25.3829 111.334 25.6856V25.6855Z" fill="white"/>
<path d="M46.0576 9.28167C46.4472 9.25371 46.8382 9.31257 47.2023 9.45401C47.5664 9.59544 47.8946 9.81592 48.1632 10.0995C48.4318 10.3832 48.6341 10.7229 48.7555 11.0941C48.8769 11.4654 48.9144 11.859 48.8652 12.2465C48.8652 14.1528 47.835 15.2485 46.0576 15.2485H43.9023V9.28167H46.0576ZM44.8291 14.4047H45.9541C46.2325 14.4213 46.5111 14.3757 46.7697 14.2711C47.0282 14.1664 47.2602 14.0055 47.4486 13.7999C47.6371 13.5944 47.7774 13.3494 47.8593 13.0827C47.9411 12.8161 47.9625 12.5346 47.9219 12.2587C47.9596 11.9838 47.936 11.7041 47.8529 11.4394C47.7698 11.1747 47.6292 10.9317 47.4411 10.7278C47.253 10.5239 47.0222 10.3641 46.7651 10.2598C46.508 10.1556 46.2311 10.1095 45.9541 10.1249H44.8291V14.4047Z" fill="white"/>
<path d="M49.9124 12.9951C49.8841 12.6992 49.9179 12.4006 50.0118 12.1185C50.1056 11.8364 50.2574 11.5771 50.4573 11.3571C50.6573 11.1371 50.901 10.9614 51.1728 10.8411C51.4447 10.7208 51.7387 10.6587 52.0359 10.6587C52.3332 10.6587 52.6272 10.7208 52.899 10.8411C53.1709 10.9614 53.4146 11.1371 53.6145 11.3571C53.8145 11.5771 53.9662 11.8364 54.0601 12.1185C54.1539 12.4006 54.1878 12.6992 54.1595 12.9951C54.1883 13.2913 54.1549 13.5903 54.0613 13.8728C53.9677 14.1553 53.816 14.4151 53.616 14.6356C53.416 14.856 53.1721 15.0321 52.9 15.1526C52.6279 15.2732 52.3335 15.3354 52.0359 15.3354C51.7383 15.3354 51.444 15.2732 51.1718 15.1526C50.8997 15.0321 50.6558 14.856 50.4558 14.6356C50.2558 14.4151 50.1042 14.1553 50.0106 13.8728C49.917 13.5903 49.8835 13.2913 49.9124 12.9951ZM53.2454 12.9951C53.2454 12.019 52.8069 11.4482 52.0374 11.4482C51.2649 11.4482 50.8304 12.019 50.8304 12.9951C50.8304 13.979 51.265 14.5454 52.0374 14.5454C52.8069 14.5454 53.2454 13.975 53.2454 12.9951H53.2454Z" fill="white"/>
<path d="M59.8047 15.2485H58.8828L57.9522 11.9321H57.8818L56.9551 15.2485H56.042L54.8008 10.7456H55.7022L56.5088 14.1816H56.5752L57.501 10.7456H58.3535L59.2793 14.1816H59.3496L60.1523 10.7456H61.041L59.8047 15.2485Z" fill="white"/>
<path d="M62.0859 10.7457H62.9414V11.461H63.0078C63.1205 11.2041 63.3105 10.9887 63.5513 10.8449C63.7922 10.7011 64.072 10.636 64.3516 10.6587C64.5707 10.6423 64.7907 10.6753 64.9953 10.7554C65.1999 10.8355 65.3838 10.9606 65.5335 11.1214C65.6832 11.2823 65.7948 11.4747 65.86 11.6846C65.9252 11.8944 65.9423 12.1162 65.9102 12.3335V15.2485H65.0215V12.5567C65.0215 11.8331 64.707 11.4732 64.0498 11.4732C63.9011 11.4663 63.7526 11.4916 63.6145 11.5474C63.4764 11.6032 63.3521 11.6883 63.25 11.7966C63.1478 11.905 63.0704 12.0342 63.0228 12.1753C62.9753 12.3165 62.9589 12.4662 62.9746 12.6143V15.2486H62.0859L62.0859 10.7457Z" fill="white"/>
<path d="M67.3242 8.98779H68.2129V15.2485H67.3242V8.98779Z" fill="white"/>
<path d="M69.4475 12.9952C69.4192 12.6992 69.4531 12.4006 69.547 12.1186C69.6408 11.8365 69.7926 11.5771 69.9926 11.3571C70.1925 11.1371 70.4363 10.9614 70.7081 10.8411C70.98 10.7208 71.274 10.6587 71.5713 10.6587C71.8686 10.6587 72.1626 10.7208 72.4345 10.8411C72.7063 10.9614 72.9501 11.1371 73.15 11.3571C73.35 11.5771 73.5018 11.8365 73.5956 12.1186C73.6895 12.4006 73.7234 12.6992 73.6951 12.9952C73.7239 13.2914 73.6904 13.5904 73.5968 13.8729C73.5032 14.1554 73.3515 14.4152 73.1515 14.6356C72.9515 14.856 72.7075 15.0322 72.4354 15.1527C72.1633 15.2732 71.8689 15.3355 71.5713 15.3355C71.2737 15.3355 70.9793 15.2732 70.7072 15.1527C70.4351 15.0322 70.1912 14.856 69.9911 14.6356C69.7911 14.4152 69.6394 14.1554 69.5458 13.8729C69.4522 13.5904 69.4187 13.2914 69.4475 12.9952ZM72.7805 12.9952C72.7805 12.0191 72.342 11.4483 71.5725 11.4483C70.8001 11.4483 70.3655 12.0191 70.3655 12.9952C70.3655 13.9791 70.8001 14.5455 71.5725 14.5455C72.3421 14.5454 72.7805 13.9751 72.7805 12.9952H72.7805Z" fill="white"/>
<path d="M74.6328 13.9751C74.6328 13.1645 75.2363 12.6973 76.3076 12.6309L77.5273 12.5605V12.1719C77.5273 11.6963 77.2129 11.4277 76.6055 11.4277C76.1094 11.4277 75.7656 11.6099 75.667 11.9282H74.8066C74.8975 11.1548 75.625 10.6587 76.6465 10.6587C77.7754 10.6587 78.4121 11.2207 78.4121 12.1719V15.2485H77.5566V14.6157H77.4863C77.3436 14.8427 77.1432 15.0278 76.9056 15.152C76.668 15.2762 76.4016 15.3351 76.1338 15.3227C75.9448 15.3424 75.7537 15.3222 75.5729 15.2635C75.3922 15.2048 75.2257 15.1089 75.0843 14.9819C74.9429 14.855 74.8296 14.6998 74.7519 14.5263C74.6741 14.3529 74.6336 14.1651 74.6328 13.9751ZM77.5273 13.5903V13.2139L76.4277 13.2842C75.8076 13.3257 75.5264 13.5366 75.5264 13.9336C75.5264 14.3389 75.8779 14.5747 76.3614 14.5747C76.503 14.589 76.6461 14.5747 76.7821 14.5326C76.9181 14.4905 77.0442 14.4215 77.153 14.3297C77.2618 14.2378 77.351 14.1251 77.4153 13.998C77.4796 13.871 77.5177 13.7324 77.5273 13.5903Z" fill="white"/>
<path d="M79.5781 12.9951C79.5781 11.5723 80.3096 10.6709 81.4473 10.6709C81.7287 10.6579 82.008 10.7253 82.2525 10.8652C82.497 11.0051 82.6967 11.2117 82.8281 11.4609H82.8945V8.98779H83.7832V15.2485H82.9317V14.5371H82.8613C82.7197 14.7846 82.5131 14.9886 82.2639 15.1271C82.0146 15.2656 81.7322 15.3332 81.4473 15.3227C80.3018 15.3228 79.5781 14.4214 79.5781 12.9951ZM80.4961 12.9951C80.4961 13.9502 80.9463 14.5249 81.6993 14.5249C82.4483 14.5249 82.9112 13.9419 82.9112 12.999C82.9112 12.0606 82.4434 11.4693 81.6993 11.4693C80.9512 11.4693 80.4961 12.0479 80.4961 12.9951H80.4961Z" fill="white"/>
<path d="M87.4632 12.9951C87.4349 12.6992 87.4687 12.4006 87.5626 12.1185C87.6564 11.8364 87.8082 11.5771 88.0081 11.3571C88.208 11.1371 88.4517 10.9614 88.7236 10.8411C88.9954 10.7208 89.2894 10.6587 89.5867 10.6587C89.884 10.6587 90.178 10.7208 90.4498 10.8411C90.7217 10.9614 90.9654 11.1371 91.1653 11.3571C91.3653 11.5771 91.517 11.8364 91.6109 12.1185C91.7047 12.4006 91.7385 12.6992 91.7102 12.9951C91.7391 13.2913 91.7056 13.5903 91.612 13.8728C91.5184 14.1553 91.3668 14.4151 91.1668 14.6356C90.9668 14.856 90.7229 15.0321 90.4508 15.1526C90.1787 15.2732 89.8843 15.3354 89.5867 15.3354C89.2891 15.3354 88.9947 15.2732 88.7226 15.1526C88.4505 15.0321 88.2066 14.856 88.0066 14.6356C87.8066 14.4151 87.655 14.1553 87.5614 13.8728C87.4678 13.5903 87.4343 13.2913 87.4632 12.9951ZM90.7962 12.9951C90.7962 12.019 90.3577 11.4482 89.5882 11.4482C88.8157 11.4482 88.3812 12.019 88.3812 12.9951C88.3812 13.979 88.8157 14.5454 89.5882 14.5454C90.3577 14.5454 90.7962 13.975 90.7962 12.9951Z" fill="white"/>
<path d="M92.9023 10.7457H93.7578V11.461H93.8242C93.9369 11.2041 94.1269 10.9887 94.3678 10.8449C94.6086 10.7011 94.8884 10.636 95.168 10.6587C95.3871 10.6423 95.6071 10.6753 95.8117 10.7554C96.0163 10.8355 96.2002 10.9606 96.3499 11.1214C96.4996 11.2823 96.6112 11.4747 96.6764 11.6846C96.7416 11.8944 96.7587 12.1162 96.7266 12.3335V15.2485H95.8379V12.5567C95.8379 11.8331 95.5235 11.4732 94.8662 11.4732C94.7175 11.4663 94.569 11.4916 94.4309 11.5474C94.2928 11.6032 94.1685 11.6883 94.0664 11.7966C93.9642 11.905 93.8868 12.0342 93.8392 12.1753C93.7917 12.3165 93.7753 12.4662 93.791 12.6143V15.2486H92.9023V10.7457Z" fill="white"/>
<path d="M101.745 9.62451V10.7661H102.721V11.5147H101.745V13.8301C101.745 14.3018 101.939 14.5083 102.382 14.5083C102.495 14.5079 102.608 14.5011 102.721 14.4878V15.228C102.561 15.2566 102.399 15.2718 102.237 15.2734C101.249 15.2734 100.855 14.9258 100.855 14.0576V11.5146H100.141V10.7661H100.855V9.62451H101.745Z" fill="white"/>
<path d="M103.938 8.98779H104.818V11.4692H104.889C105.007 11.2099 105.202 10.9933 105.448 10.849C105.693 10.7046 105.978 10.6396 106.262 10.6626C106.48 10.6507 106.698 10.6871 106.9 10.7692C107.102 10.8512 107.284 10.9769 107.432 11.1372C107.58 11.2976 107.691 11.4886 107.757 11.6968C107.822 11.9049 107.842 12.125 107.812 12.3413V15.2485H106.923V12.5605C106.923 11.8413 106.588 11.477 105.96 11.477C105.807 11.4645 105.654 11.4855 105.51 11.5386C105.366 11.5916 105.236 11.6754 105.128 11.7842C105.02 11.8929 104.937 12.0239 104.885 12.1681C104.833 12.3122 104.813 12.466 104.826 12.6186V15.2485H103.938L103.938 8.98779Z" fill="white"/>
<path d="M112.992 14.0328C112.871 14.4443 112.61 14.8003 112.253 15.0385C111.896 15.2766 111.467 15.3818 111.041 15.3355C110.744 15.3433 110.449 15.2865 110.177 15.169C109.904 15.0515 109.661 14.876 109.463 14.6549C109.265 14.4338 109.117 14.1722 109.031 13.8884C108.944 13.6046 108.92 13.3053 108.961 13.0113C108.921 12.7164 108.945 12.4165 109.032 12.1318C109.118 11.8471 109.265 11.5844 109.462 11.3613C109.659 11.1382 109.901 10.9601 110.173 10.8389C110.445 10.7176 110.739 10.6562 111.037 10.6588C112.29 10.6588 113.046 11.5148 113.046 12.9288V13.2389H109.866V13.2887C109.852 13.4539 109.873 13.6202 109.927 13.777C109.981 13.9337 110.067 14.0774 110.18 14.1989C110.293 14.3204 110.43 14.4169 110.583 14.4823C110.735 14.5477 110.899 14.5805 111.065 14.5787C111.278 14.6042 111.493 14.5659 111.684 14.4687C111.875 14.3715 112.032 14.2197 112.136 14.0328L112.992 14.0328ZM109.866 12.5816H112.14C112.151 12.4305 112.131 12.2787 112.08 12.136C112.029 11.9933 111.949 11.8628 111.844 11.7529C111.74 11.6431 111.614 11.5563 111.474 11.4981C111.334 11.4399 111.183 11.4116 111.032 11.4151C110.878 11.4132 110.726 11.442 110.583 11.5C110.441 11.5579 110.312 11.6438 110.203 11.7525C110.094 11.8612 110.008 11.9906 109.951 12.133C109.893 12.2754 109.864 12.4279 109.866 12.5816H109.866Z" fill="white"/>
</svg>
