<svg width="18" height="18" viewBox="0 0 18 18" fill="none" xmlns="http://www.w3.org/2000/svg">
<path d="M0.999969 6.00048L0.645969 6.35448L0.292969 6.00048L0.645969 5.64648L0.999969 6.00048ZM5.99997 17.5005C5.86736 17.5005 5.74018 17.4478 5.64641 17.354C5.55265 17.2603 5.49997 17.1331 5.49997 17.0005C5.49997 16.8679 5.55265 16.7407 5.64641 16.6469C5.74018 16.5532 5.86736 16.5005 5.99997 16.5005V17.5005ZM5.64597 11.3545L0.645969 6.35448L1.35397 5.64648L6.35397 10.6465L5.64597 11.3545ZM0.645969 5.64648L5.64597 0.646484L6.35397 1.35448L1.35397 6.35448L0.645969 5.64648ZM0.999969 5.50048H11.5V6.50048H0.999969V5.50048ZM11.5 17.5005H5.99997V16.5005H11.5V17.5005ZM17.5 11.5005C17.5 13.0918 16.8678 14.6179 15.7426 15.7431C14.6174 16.8683 13.0913 17.5005 11.5 17.5005V16.5005C12.8261 16.5005 14.0978 15.9737 15.0355 15.036C15.9732 14.0983 16.5 12.8266 16.5 11.5005H17.5ZM11.5 5.50048C13.0913 5.50048 14.6174 6.13263 15.7426 7.25784C16.8678 8.38306 17.5 9.90919 17.5 11.5005H16.5C16.5 10.1744 15.9732 8.90263 15.0355 7.96495C14.0978 7.02727 12.8261 6.50048 11.5 6.50048V5.50048Z" fill="white"/>
</svg>
