<svg width="33" height="33" viewBox="0 0 33 33" fill="none" xmlns="http://www.w3.org/2000/svg">
<circle cx="16.7577" cy="16.2499" r="16.2069" fill="#FA0000"/>
<path fill-rule="evenodd" clip-rule="evenodd" d="M18.3708 13.009C18.3708 14.7991 16.9196 16.2503 15.1294 16.2503C13.3393 16.2503 11.8881 14.7991 11.8881 13.009C11.8881 11.2188 13.3393 9.76758 15.1294 9.76758C16.9196 9.76758 18.3708 11.2188 18.3708 13.009ZM15.1294 17.0607C11.9967 17.0607 9.45703 18.8747 9.45703 21.1124C9.45703 22.0075 10.1826 22.7331 11.0777 22.7331H19.1812C20.0763 22.7331 20.8019 22.0075 20.8019 21.1124C20.8019 18.8747 18.2622 17.0607 15.1294 17.0607ZM21.6122 11.3883C22.0597 11.3883 22.4225 11.7511 22.4225 12.1987V13.009H23.2329C23.6804 13.009 24.0432 13.3718 24.0432 13.8194C24.0432 14.2669 23.6804 14.6297 23.2329 14.6297H22.4225V15.4401C22.4225 15.8876 22.0597 16.2504 21.6122 16.2504C21.1647 16.2504 20.8019 15.8876 20.8019 15.4401V14.6297H19.9915C19.544 14.6297 19.1812 14.2669 19.1812 13.8194C19.1812 13.3718 19.544 13.009 19.9915 13.009H20.8019V12.1987C20.8019 11.7511 21.1647 11.3883 21.6122 11.3883Z" fill="white"/>
</svg>
