<svg width="57" height="58" viewBox="0 0 57 58" fill="none" xmlns="http://www.w3.org/2000/svg">
<path d="M28.5373 2.67285C42.9461 2.67285 54.645 14.3717 54.645 28.7805C54.645 43.1893 42.9461 54.8881 28.5373 54.8881C14.1285 54.8881 2.42969 43.1893 2.42969 28.7805C2.42969 14.3717 14.1285 2.67285 28.5373 2.67285Z" fill="#FA0000"/>
<path d="M28.5373 2.67285C42.9461 2.67285 54.645 14.3717 54.645 28.7805C54.645 43.1893 42.9461 54.8881 28.5373 54.8881C14.1285 54.8881 2.42969 43.1893 2.42969 28.7805C2.42969 14.3717 14.1285 2.67285 28.5373 2.67285Z" fill="#FA0000"/>
<path d="M28.5 1C43.8132 1 56.2463 13.4331 56.2463 28.7463C56.2463 41.896 47.0784 52.9217 34.7916 55.7751" stroke="#FA0000" stroke-width="1.26068"/>
<path d="M28.5 56.4922C13.1868 56.4922 0.753662 44.0591 0.753662 28.7459C0.753662 15.5962 9.92159 4.57053 22.2084 1.7171" stroke="#FA0000" stroke-width="1.26068"/>
<mask id="mask0_6854_6362" style="mask-type:alpha" maskUnits="userSpaceOnUse" x="7" y="4" width="44" height="44">
<path d="M28.5507 4.9043C40.4014 4.9043 50.0233 14.5262 50.0233 26.3769C50.0233 38.2276 40.4014 47.8494 28.5507 47.8494C16.7 47.8494 7.07812 38.2276 7.07812 26.3769C7.07812 14.5262 16.7 4.9043 28.5507 4.9043Z" fill="#171717"/>
</mask>
<g mask="url(#mask0_6854_6362)">
<mask id="mask1_6854_6362" style="mask-type:luminance" maskUnits="userSpaceOnUse" x="-1" y="-3" width="59" height="59">
<path d="M-0.523438 -2.68848H57.9195V55.7544H-0.523438V-2.68848Z" fill="white"/>
</mask>
<g mask="url(#mask1_6854_6362)">
<path d="M43.3444 39.191C43.3444 36.0991 40.537 33.356 36.382 32.3883L35.1257 32.0956C30.8442 31.0983 26.3909 31.0983 22.1093 32.0956L20.8642 32.3856C16.7024 33.3549 13.8906 36.1023 13.8906 39.1993C13.8906 39.6706 14.0999 40.1192 14.4652 40.4168C18.335 43.5683 23.2559 45.4595 28.6175 45.4595C33.9792 45.4595 38.9001 43.5683 42.7698 40.4168C43.1352 40.1192 43.3444 39.6706 43.3444 39.1993V39.191Z" fill="white"/>
<path d="M35.7092 19.4523C35.7092 23.3706 32.5327 26.5471 28.6144 26.5471C24.696 26.5471 21.5195 23.3706 21.5195 19.4523C21.5195 15.5339 24.696 12.3574 28.6144 12.3574C32.5327 12.3574 35.7092 15.5339 35.7092 19.4523Z" fill="white"/>
</g>
</g>
</svg>
