<svg width="40" height="41" viewBox="0 0 40 41" fill="none" xmlns="http://www.w3.org/2000/svg">
<path d="M32.6721 11.3252H8.3893C7.73391 11.3252 7.20312 11.8562 7.20312 12.5116V37.2378C7.20312 39.1744 8.77857 40.7501 10.715 40.7501H30.3465C32.2831 40.7501 33.8583 39.1744 33.8583 37.2378V12.5116C33.8583 11.8562 33.3275 11.3252 32.6721 11.3252Z" fill="#F4350F"/>
<path d="M14.4598 34.2324C13.8045 34.2324 13.2734 33.7014 13.2734 33.0463V19.0304C13.2734 18.375 13.8045 17.8438 14.4598 17.8438C15.115 17.8438 15.6463 18.375 15.6463 19.0304V33.0463C15.6463 33.7014 15.115 34.2324 14.4598 34.2324Z" fill="white"/>
<path d="M20.5263 34.2324C19.8711 34.2324 19.3398 33.7014 19.3398 33.0463V19.0304C19.3398 18.375 19.8711 17.8438 20.5263 17.8438C21.1816 17.8438 21.7127 18.375 21.7127 19.0304V33.0463C21.7127 33.7014 21.1816 34.2324 20.5263 34.2324Z" fill="white"/>
<path d="M21.7098 33.0463V19.0304C21.7098 18.375 21.1788 17.8438 20.5234 17.8438V34.2324C21.1788 34.2324 21.7098 33.7016 21.7098 33.0463Z" fill="white"/>
<path d="M26.6007 34.2324C25.9456 34.2324 25.4141 33.7014 25.4141 33.0463V19.0304C25.4141 18.375 25.9456 17.8438 26.6007 17.8438C27.2561 17.8438 27.7869 18.375 27.7869 19.0304V33.0463C27.7869 33.7014 27.2561 34.2324 26.6007 34.2324Z" fill="white"/>
<path d="M38.3886 9.3215C38.4201 9.23007 38.5495 9.23007 38.5811 9.3215L38.6567 9.54072C38.6873 9.62943 38.7572 9.69913 38.8458 9.72977L39.0651 9.80555C39.1565 9.83703 39.1565 9.96641 39.0651 9.99798L38.8458 10.0737C38.7572 10.1043 38.6873 10.1741 38.6567 10.2627L38.5811 10.482C38.5495 10.5735 38.4201 10.5735 38.3886 10.482L38.3129 10.2627C38.2822 10.1741 38.2124 10.1043 38.1238 10.0737L37.9045 9.99798C37.8131 9.96641 37.8131 9.83703 37.9045 9.80555L38.1238 9.72977C38.2124 9.69913 38.2822 9.62943 38.3129 9.54072L38.3886 9.3215Z" stroke="#F4340F" stroke-width="0.203663"/>
<path d="M3.0737 17.3535C3.12206 17.2142 3.31932 17.2142 3.36745 17.3535L3.48299 17.688C3.52969 17.8233 3.63618 17.9298 3.77149 17.9765L4.10598 18.0921C4.24534 18.1402 4.24534 18.3377 4.10598 18.3861L3.77149 18.5011C3.63618 18.5481 3.52969 18.6543 3.48299 18.7896L3.36745 19.1246C3.31932 19.264 3.12206 19.264 3.0737 19.1246L2.9584 18.7896C2.91146 18.6543 2.80521 18.5481 2.66989 18.5011L2.33517 18.3861C2.19557 18.3377 2.19557 18.1402 2.33517 18.0921L2.66989 17.9765C2.80521 17.9298 2.91146 17.8233 2.9584 17.688L3.0737 17.3535Z" stroke="#F4340F" stroke-width="0.310659"/>
<path d="M2.06585 1.97101C2.13432 1.77268 2.4148 1.77268 2.48326 1.97101L2.64757 2.4465C2.71405 2.63886 2.86511 2.79014 3.05769 2.85662L3.53319 3.02071C3.73151 3.08918 3.73151 3.36988 3.53319 3.43856L3.05769 3.60265C2.86511 3.66891 2.71405 3.82019 2.64757 4.01277L2.48326 4.48804C2.4148 4.68659 2.13432 4.68659 2.06585 4.48804L1.90154 4.01277C1.83507 3.82019 1.68378 3.66891 1.49142 3.60265L1.01593 3.43856C0.817607 3.36988 0.817607 3.08918 1.01593 3.02071L1.49142 2.85662C1.68378 2.79014 1.83507 2.63886 1.90154 2.4465L2.06585 1.97101Z" stroke="#F4340F" stroke-width="0.441701"/>
<path d="M25.0217 6.9695H16.0341C15.3787 6.9695 14.8477 6.43823 14.8477 5.78285V3.76595C14.8477 1.82886 16.4233 0.25293 18.3607 0.25293H22.6949C24.6325 0.25293 26.2081 1.82886 26.2081 3.76595V5.78285C26.2081 6.43823 25.6771 6.9695 25.0217 6.9695ZM17.2205 4.59644H23.8351V3.76595C23.8351 3.13724 23.3238 2.62599 22.6949 2.62599H18.3607C17.732 2.62599 17.2205 3.13724 17.2205 3.76595V4.59644Z" fill="#F4350F"/>
<path d="M29.9244 4.59473H11.1277C8.04825 4.59473 5.54297 7.10001 5.54297 10.1794V12.513C5.54297 13.1683 6.07423 13.6996 6.72962 13.6996H34.3227C34.9781 13.6996 35.5092 13.1683 35.5092 12.513V10.1794C35.5092 7.10001 33.0039 4.59473 29.9244 4.59473Z" fill="#FBE8E5"/>
<path d="M29.9257 4.59473H20.5273V13.6996H34.324C34.9794 13.6996 35.5104 13.1683 35.5104 12.513V10.1794C35.5104 7.10001 33.0052 4.59473 29.9257 4.59473Z" fill="#FBC2B5"/>
</svg>
