<svg width="24" height="23" viewBox="0 0 24 23" fill="none" xmlns="http://www.w3.org/2000/svg">
<path d="M20.9756 17.1729H19.1632C19.0394 17.1729 18.9234 17.227 18.846 17.3224C18.6656 17.5416 18.4722 17.753 18.2685 17.9541C17.4355 18.7879 16.4488 19.4524 15.363 19.9109C14.238 20.386 13.0289 20.6298 11.8078 20.6276C10.5728 20.6276 9.37659 20.3852 8.25253 19.9109C7.16668 19.4524 6.17997 18.7879 5.34698 17.9541C4.51249 17.123 3.84708 16.138 3.3876 15.0537C2.91065 13.9296 2.67089 12.7359 2.67089 11.501C2.67089 10.2661 2.91323 9.07242 3.3876 7.94836C3.84651 6.86297 4.50651 5.88586 5.34698 5.04797C6.18745 4.21008 7.16456 3.55008 8.25253 3.09117C9.37659 2.6168 10.5728 2.37445 11.8078 2.37445C13.0427 2.37445 14.2389 2.61422 15.363 3.09117C16.451 3.55008 17.4281 4.21008 18.2685 5.04797C18.4722 5.25164 18.663 5.46305 18.846 5.67961C18.9234 5.775 19.042 5.82914 19.1632 5.82914H20.9756C21.138 5.82914 21.2385 5.64867 21.1483 5.51203C19.1709 2.43891 15.711 0.404766 11.7794 0.415078C5.60221 0.430547 0.649636 5.445 0.711511 11.6145C0.773386 17.6859 5.71823 22.587 11.8078 22.587C15.7291 22.587 19.1735 20.5554 21.1483 17.49C21.236 17.3534 21.138 17.1729 20.9756 17.1729ZM23.2675 11.3386L19.6092 8.45109C19.4725 8.34281 19.274 8.44078 19.274 8.61352V10.5729H11.1787C11.0653 10.5729 10.9724 10.6657 10.9724 10.7791V12.2229C10.9724 12.3363 11.0653 12.4291 11.1787 12.4291H19.274V14.3885C19.274 14.5613 19.4751 14.6592 19.6092 14.5509L23.2675 11.6634C23.2922 11.6441 23.3121 11.6195 23.3258 11.5914C23.3395 11.5632 23.3467 11.5323 23.3467 11.501C23.3467 11.4697 23.3395 11.4388 23.3258 11.4107C23.3121 11.3825 23.2922 11.3579 23.2675 11.3386Z" fill="#FA0000"/>
</svg>
