<svg width="24" height="25" viewBox="0 0 24 25" fill="none" xmlns="http://www.w3.org/2000/svg">
<path d="M4.50001 17.5C4.35801 17.5 4.23934 17.452 4.14401 17.356C4.04867 17.26 4.00067 17.141 4.00001 16.999C3.99934 16.857 4.04734 16.7383 4.14401 16.643C4.24067 16.5477 4.35934 16.5 4.50001 16.5H14.923C15.065 16.5 15.1837 16.548 15.279 16.644C15.3743 16.74 15.4223 16.859 15.423 17.001C15.4237 17.143 15.3757 17.2617 15.279 17.357C15.1823 17.4523 15.0637 17.5 14.923 17.5H4.50001ZM18.939 16.242L15.742 13.065C15.5807 12.9043 15.5 12.716 15.5 12.5C15.5 12.284 15.5807 12.0957 15.742 11.935L18.938 8.777C19.0313 8.68367 19.1463 8.63367 19.283 8.627C19.4183 8.62033 19.5393 8.67033 19.646 8.777C19.7527 8.88367 19.806 9.00167 19.806 9.131C19.806 9.26033 19.7527 9.378 19.646 9.484L16.573 12.5L19.646 15.535C19.7527 15.6237 19.806 15.737 19.806 15.875C19.806 16.013 19.7527 16.1353 19.646 16.242C19.5567 16.3353 19.4433 16.382 19.306 16.382C19.1673 16.382 19.0457 16.3353 18.939 16.242ZM4.50001 13C4.35801 13 4.23934 12.952 4.14401 12.856C4.04867 12.76 4.00067 12.641 4.00001 12.499C3.99934 12.357 4.04734 12.2383 4.14401 12.143C4.24067 12.0477 4.35934 12 4.50001 12H12.077C12.219 12 12.3377 12.048 12.433 12.144C12.5283 12.24 12.5763 12.359 12.577 12.501C12.5777 12.643 12.5297 12.7617 12.433 12.857C12.3363 12.9523 12.2177 13 12.077 13H4.50001ZM4.50001 8.5C4.35801 8.5 4.23934 8.452 4.14401 8.356C4.04867 8.26 4.00067 8.141 4.00001 7.999C3.99934 7.857 4.04734 7.73833 4.14401 7.643C4.24067 7.54767 4.35934 7.5 4.50001 7.5H14.923C15.065 7.5 15.1837 7.548 15.279 7.644C15.3743 7.74 15.4223 7.859 15.423 8.001C15.4237 8.143 15.3757 8.26167 15.279 8.357C15.1823 8.45233 15.0637 8.5 14.923 8.5H4.50001Z" fill="black"/>
</svg>
