<svg width="16" height="11" viewBox="0 0 16 11" fill="none" xmlns="http://www.w3.org/2000/svg">
<path d="M0.500007 10.5C0.358007 10.5 0.23934 10.452 0.144007 10.356C0.0486736 10.26 0.000673516 10.141 6.84931e-06 9.999C-0.000659817 9.857 0.0473402 9.73833 0.144007 9.643C0.240674 9.54767 0.35934 9.5 0.500007 9.5H10.923C11.065 9.5 11.1837 9.548 11.279 9.644C11.3743 9.74 11.4223 9.859 11.423 10.001C11.4237 10.143 11.3757 10.2617 11.279 10.357C11.1823 10.4523 11.0637 10.5 10.923 10.5H0.500007ZM14.939 9.242L11.742 6.065C11.5807 5.90433 11.5 5.716 11.5 5.5C11.5 5.284 11.5807 5.09567 11.742 4.935L14.938 1.777C15.0313 1.68367 15.1463 1.63367 15.283 1.627C15.4183 1.62033 15.5393 1.67033 15.646 1.777C15.7527 1.88367 15.806 2.00167 15.806 2.131C15.806 2.26033 15.7527 2.378 15.646 2.484L12.573 5.5L15.646 8.535C15.7527 8.62367 15.806 8.737 15.806 8.875C15.806 9.013 15.7527 9.13533 15.646 9.242C15.5567 9.33533 15.4433 9.382 15.306 9.382C15.1673 9.382 15.0457 9.33533 14.939 9.242ZM0.500007 6C0.358007 6 0.23934 5.952 0.144007 5.856C0.0486736 5.76 0.000673516 5.641 6.84931e-06 5.499C-0.000659817 5.357 0.0473402 5.23833 0.144007 5.143C0.240674 5.04767 0.35934 5 0.500007 5H8.07701C8.21901 5 8.33767 5.048 8.43301 5.144C8.52834 5.24 8.57634 5.359 8.57701 5.501C8.57767 5.643 8.52967 5.76167 8.43301 5.857C8.33634 5.95233 8.21767 6 8.07701 6H0.500007ZM0.500007 1.5C0.358007 1.5 0.23934 1.452 0.144007 1.356C0.0486736 1.26 0.000673516 1.141 6.84931e-06 0.999C-0.000659817 0.857 0.0473402 0.738333 0.144007 0.643C0.240674 0.547667 0.35934 0.5 0.500007 0.5H10.923C11.065 0.5 11.1837 0.548 11.279 0.644C11.3743 0.74 11.4223 0.859 11.423 1.001C11.4237 1.143 11.3757 1.26167 11.279 1.357C11.1823 1.45233 11.0637 1.5 10.923 1.5H0.500007Z" fill="black"/>
</svg>
