<svg width="33" height="33" viewBox="0 0 33 33" fill="none" xmlns="http://www.w3.org/2000/svg">
<circle cx="16.2069" cy="16.2069" r="16.2069" fill="#1D33F8"/>
<path d="M17.6902 12.2422L12.8772 17.3492C12.4852 17.7652 12.2892 17.9732 12.1332 17.9112C11.9772 17.8492 11.9902 17.5692 12.0152 17.0072L12.0962 15.2352M14.3102 20.2422L19.1232 15.1352C19.5152 14.7192 19.7112 14.5112 19.8672 14.5732C20.0232 14.6352 20.0102 14.9152 19.9842 15.4772L19.9042 17.2492" stroke="white" stroke-width="1.5" stroke-linecap="round" stroke-linejoin="round"/>
<path d="M16 26.2422C21.5228 26.2422 26 21.765 26 16.2422C26 10.7193 21.5228 6.24219 16 6.24219C10.4772 6.24219 6 10.7193 6 16.2422C6 21.765 10.4772 26.2422 16 26.2422Z" stroke="white" stroke-width="1.5" stroke-linecap="round" stroke-linejoin="round"/>
</svg>
