<svg width="136" height="41" viewBox="0 0 136 41" fill="none" xmlns="http://www.w3.org/2000/svg">
<g clip-path="url(#clip0_5888_17875)">
<path d="M130.202 0.550781H5.2031C2.44169 0.550781 0.203125 2.78935 0.203125 5.55076V35.5506C0.203125 38.312 2.44169 40.5506 5.2031 40.5506H130.202C132.964 40.5506 135.202 38.312 135.202 35.5506V5.55076C135.202 2.78935 132.964 0.550781 130.202 0.550781Z" fill="black"/>
<path d="M130.202 1.35058C131.316 1.35186 132.384 1.7948 133.171 2.58222C133.958 3.36964 134.401 4.43722 134.402 5.55076V35.5506C134.401 36.6641 133.958 37.7317 133.171 38.5191C132.384 39.3065 131.316 39.7495 130.202 39.7508H5.2031C4.08956 39.7495 3.02199 39.3066 2.23461 38.5192C1.44724 37.7317 1.00435 36.6642 1.00312 35.5506V5.55076C1.00433 4.43721 1.44721 3.36961 2.23459 2.58219C3.02197 1.79477 4.08955 1.35184 5.2031 1.35058H130.202ZM130.202 0.550781H5.2031C3.87822 0.554659 2.60871 1.08269 1.67187 2.01952C0.73503 2.95636 0.207003 4.22587 0.203125 5.55076L0.203125 35.5506C0.207003 36.8755 0.73503 38.145 1.67187 39.0818C2.60871 40.0187 3.87822 40.5467 5.2031 40.5506H130.202C131.527 40.5467 132.797 40.0187 133.734 39.0818C134.671 38.145 135.199 36.8755 135.202 35.5506V5.55076C135.199 4.22587 134.671 2.95636 133.734 2.01952C132.797 1.08269 131.527 0.554659 130.202 0.550781Z" fill="#1D1D1D"/>
<path d="M47.6214 10.7941C47.6395 11.161 47.5829 11.5278 47.4547 11.8722C47.3266 12.2165 47.1298 12.5312 46.8762 12.797C46.592 13.0918 46.2487 13.3232 45.8689 13.4762C45.4891 13.6291 45.0813 13.7002 44.6721 13.6847C44.2603 13.6884 43.8519 13.6097 43.471 13.4533C43.0901 13.2969 42.7442 13.066 42.4538 12.774C42.1634 12.482 41.9343 12.135 41.78 11.7532C41.6256 11.3714 41.5491 10.9627 41.555 10.5509C41.5492 10.1391 41.6257 9.73036 41.78 9.34858C41.9344 8.9668 42.1635 8.61972 42.4539 8.32773C42.7443 8.03574 43.0901 7.80473 43.471 7.64826C43.8519 7.4918 44.2603 7.41305 44.6721 7.41662C45.0955 7.41534 45.5146 7.50094 45.9036 7.66812C46.2648 7.81456 46.5864 8.04426 46.8421 8.33852L46.3147 8.86631C46.1137 8.62977 45.8611 8.44255 45.5763 8.31912C45.2915 8.19569 44.9821 8.13934 44.6721 8.15442C44.36 8.1528 44.0508 8.21419 43.763 8.3349C43.4752 8.45561 43.2148 8.63316 42.9972 8.85692C42.7797 9.08068 42.6095 9.34604 42.4969 9.63712C42.3844 9.92819 42.3317 10.239 42.3421 10.5509C42.3347 11.0181 42.4661 11.477 42.7198 11.8694C42.9735 12.2617 43.338 12.5699 43.7671 12.7549C44.1962 12.9398 44.6706 12.9932 45.13 12.9082C45.5895 12.8232 46.0133 12.6037 46.3479 12.2775C46.6558 11.9457 46.8342 11.5144 46.8508 11.0621H44.6721V10.3414H47.5794C47.6069 10.4907 47.6209 10.6423 47.6214 10.7941Z" fill="white" stroke="white" stroke-width="0.2" stroke-miterlimit="10"/>
<path d="M52.2294 8.28808H49.4971V10.1904H51.9609V10.9112H49.4971V12.8135H52.2294V13.5507H48.7266V7.55078H52.2294V8.28808Z" fill="white" stroke="white" stroke-width="0.2" stroke-miterlimit="10"/>
<path d="M55.4824 13.5507H54.7109V8.28808H53.0352V7.55078H57.1582V8.28808H55.4824V13.5507Z" fill="white" stroke="white" stroke-width="0.2" stroke-miterlimit="10"/>
<path d="M60.1406 13.5507V7.55078H60.9111V13.5507H60.1406Z" fill="white" stroke="white" stroke-width="0.2" stroke-miterlimit="10"/>
<path d="M64.33 13.5507H63.5585V8.28808H61.8828V7.55078H66.0058V8.28808H64.33V13.5507Z" fill="white" stroke="white" stroke-width="0.2" stroke-miterlimit="10"/>
<path d="M73.8113 12.7754C73.2273 13.3576 72.4363 13.6846 71.6116 13.6846C70.7869 13.6846 69.9959 13.3576 69.4119 12.7754C69.123 12.4828 68.8959 12.135 68.7441 11.7529C68.5922 11.3707 68.5188 10.9619 68.5281 10.5508C68.5188 10.1397 68.5922 9.73088 68.7441 9.34872C68.8959 8.96656 69.123 8.61883 69.4119 8.3262C69.7006 8.03747 70.0433 7.8085 70.4206 7.6524C70.7979 7.4963 71.2022 7.41614 71.6105 7.41651C72.0187 7.41687 72.4229 7.49775 72.7999 7.65451C73.1769 7.81128 73.5193 8.04086 73.8074 8.3301C74.0965 8.62195 74.3241 8.96891 74.4766 9.35038C74.629 9.73184 74.7034 10.1401 74.6951 10.5508C74.7042 10.9619 74.6306 11.3706 74.4788 11.7527C74.327 12.1348 74.1 12.4826 73.8113 12.7754ZM69.9812 12.273C70.4137 12.7048 70.9999 12.9473 71.6111 12.9473C72.2223 12.9473 72.8085 12.7048 73.241 12.273C73.4628 12.0459 73.6363 11.7762 73.7509 11.4802C73.8655 11.1842 73.919 10.868 73.908 10.5508C73.919 10.2335 73.8655 9.91738 73.7509 9.62137C73.6363 9.32537 73.4628 9.05568 73.241 8.8286C72.8085 8.39681 72.2223 8.15429 71.6111 8.15429C70.9999 8.15429 70.4137 8.39681 69.9812 8.8286C69.7597 9.05586 69.5865 9.3256 69.4721 9.62158C69.3576 9.91756 69.3043 10.2336 69.3152 10.5508C69.3043 10.8679 69.3576 11.184 69.4721 11.48C69.5865 11.776 69.7597 12.0457 69.9812 12.273Z" fill="white" stroke="white" stroke-width="0.2" stroke-miterlimit="10"/>
<path d="M75.7773 13.5507V7.55078H76.7158L79.6318 12.2183H79.665L79.6318 11.062V7.55078H80.4033V13.5507H79.5986L76.5478 8.65717H76.5146L76.5478 9.81347V13.5507H75.7773Z" fill="white" stroke="white" stroke-width="0.2" stroke-miterlimit="10"/>
<path d="M68.3403 22.3022C67.4998 22.3054 66.6791 22.5576 65.9818 23.0268C65.2845 23.4961 64.7419 24.1615 64.4224 24.9389C64.103 25.7164 64.0211 26.571 64.187 27.395C64.3529 28.219 64.7593 28.9753 65.3547 29.5685C65.9502 30.1617 66.7081 30.5652 67.5327 30.728C68.3573 30.8908 69.2116 30.8056 69.9878 30.4832C70.764 30.1608 71.4273 29.6157 71.894 28.9166C72.3606 28.2175 72.6096 27.3958 72.6096 26.5553C72.6179 25.9931 72.513 25.435 72.3011 24.9142C72.0893 24.3934 71.7749 23.9205 71.3766 23.5237C70.9782 23.1269 70.5042 22.8143 69.9826 22.6045C69.461 22.3946 68.9025 22.2918 68.3403 22.3022ZM68.3403 29.133C67.8227 29.1699 67.306 29.0501 66.8574 28.7892C66.4088 28.5283 66.0491 28.1384 65.8252 27.6703C65.6014 27.2021 65.5236 26.6774 65.6021 26.1644C65.6806 25.6515 65.9117 25.174 66.2654 24.7943C66.619 24.4145 67.0788 24.15 67.5849 24.0352C68.091 23.9204 68.6199 23.9606 69.1028 24.1507C69.5857 24.3407 70.0002 24.6717 70.2923 25.1006C70.5845 25.5295 70.7407 26.0364 70.7407 26.5553C70.7564 26.8831 70.7064 27.2108 70.5935 27.519C70.4807 27.8272 70.3073 28.1097 70.0837 28.3499C69.86 28.5901 69.5905 28.7832 69.2911 28.9176C68.9917 29.0521 68.6685 29.1253 68.3403 29.133ZM59.027 22.3022C58.1865 22.3054 57.3657 22.5575 56.6684 23.0268C55.9711 23.4961 55.4285 24.1614 55.109 24.9389C54.7895 25.7163 54.7076 26.571 54.8735 27.3949C55.0394 28.2189 55.4458 28.9753 56.0412 29.5685C56.6367 30.1617 57.3946 30.5652 58.2192 30.728C59.0438 30.8908 59.8981 30.8056 60.6743 30.4832C61.4506 30.1608 62.1139 29.6157 62.5805 28.9166C63.0471 28.2175 63.2962 27.3958 63.2961 26.5553C63.3044 25.9931 63.1995 25.435 62.9877 24.9142C62.7759 24.3935 62.4614 23.9206 62.0631 23.5238C61.6648 23.127 61.1908 22.8143 60.6692 22.6045C60.1476 22.3946 59.5891 22.2918 59.027 22.3022ZM59.027 29.133C58.5093 29.1699 57.9926 29.0501 57.544 28.7892C57.0954 28.5283 56.7358 28.1384 56.5119 27.6703C56.288 27.2021 56.2102 26.6774 56.2887 26.1644C56.3672 25.6515 56.5984 25.174 56.952 24.7943C57.3057 24.4145 57.7655 24.15 58.2715 24.0352C58.7776 23.9204 59.3065 23.9606 59.7894 24.1507C60.2723 24.3407 60.6868 24.6717 60.979 25.1006C61.2711 25.5295 61.4274 26.0364 61.4274 26.5553C61.4431 26.8831 61.393 27.2108 61.2802 27.519C61.1674 27.8272 60.994 28.1098 60.7703 28.35C60.5467 28.5902 60.2772 28.7832 59.9778 28.9176C59.6784 29.0521 59.3551 29.1253 59.027 29.133ZM47.9482 23.6072V25.4115H52.2659C52.2036 26.2578 51.8573 27.0583 51.2831 27.6831C50.8504 28.1241 50.3301 28.4695 49.7557 28.6971C49.1813 28.9246 48.5655 29.0292 47.9482 29.0041C46.6862 28.987 45.4817 28.4737 44.5953 27.5752C43.7089 26.6767 43.2119 25.4653 43.2119 24.2032C43.2119 22.9411 43.7089 21.7297 44.5953 20.8312C45.4817 19.9327 46.6862 19.4194 47.9482 19.4023C49.1604 19.3865 50.3299 19.8496 51.2026 20.6911L52.4753 19.4184C51.8799 18.8289 51.1727 18.3643 50.3953 18.0517C49.618 17.7391 48.786 17.5848 47.9482 17.5979C47.0727 17.5852 46.2034 17.7466 45.3909 18.0729C44.5783 18.3991 43.8387 18.8836 43.2151 19.4982C42.5914 20.1128 42.0962 20.8453 41.7582 21.653C41.4202 22.4607 41.2461 23.3276 41.2461 24.2032C41.2461 25.0788 41.4202 25.9457 41.7582 26.7534C42.0962 27.5611 42.5914 28.2936 43.2151 28.9082C43.8387 29.5228 44.5783 30.0073 45.3909 30.3336C46.2034 30.6598 47.0727 30.8212 47.9482 30.8085C48.8037 30.844 49.6569 30.6971 50.4513 30.3777C51.2457 30.0583 51.963 29.5736 52.5558 28.9558C53.6082 27.8071 54.1692 26.292 54.1186 24.7349C54.1227 24.3568 54.0903 23.9791 54.0218 23.6072H47.9482ZM93.2563 25.0087C93.0007 24.2383 92.5141 23.5653 91.8627 23.0811C91.2113 22.5969 90.4267 22.325 89.6153 22.3022C89.0689 22.3056 88.5288 22.4198 88.0277 22.6378C87.5266 22.8559 87.0749 23.1732 86.7 23.5708C86.325 23.9683 86.0346 24.4378 85.8462 24.9508C85.6578 25.4637 85.5754 26.0096 85.6039 26.5553C85.5916 27.1145 85.6921 27.6704 85.8995 28.1899C86.1068 28.7093 86.4168 29.1817 86.8108 29.5787C87.2047 29.9757 87.6747 30.2892 88.1926 30.5005C88.7104 30.7118 89.2656 30.8165 89.8248 30.8085C90.5255 30.8124 91.2161 30.6422 91.8347 30.3132C92.4533 29.9842 92.9805 29.5067 93.369 28.9236L91.9191 27.957C91.7019 28.3177 91.3946 28.6158 91.0275 28.822C90.6603 29.0281 90.2459 29.1353 89.8248 29.133C89.3915 29.1496 88.9632 29.0355 88.5955 28.8057C88.2278 28.5759 87.9376 28.2409 87.7626 27.8442L93.4497 25.4921L93.2563 25.0087ZM87.4566 26.4265C87.4366 26.1169 87.4785 25.8065 87.5799 25.5133C87.6813 25.2202 87.8402 24.9502 88.0472 24.7192C88.2542 24.4881 88.5052 24.3007 88.7855 24.1679C89.0658 24.035 89.3698 23.9594 89.6797 23.9455C90.0024 23.9243 90.3242 23.9985 90.605 24.159C90.8857 24.3194 91.1131 24.5589 91.2586 24.8477L87.4566 26.4265ZM82.8329 30.5507H84.7016V18.0491H82.8329V30.5507ZM79.7719 23.2527H79.7075C79.4234 22.944 79.0766 22.6996 78.6904 22.5356C78.3042 22.3717 77.8875 22.2921 77.4681 22.3022C76.3714 22.3489 75.3351 22.8174 74.5756 23.6099C73.8161 24.4024 73.3921 25.4577 73.3921 26.5554C73.3921 27.653 73.8161 28.7083 74.5756 29.5008C75.3351 30.2933 76.3714 30.7618 77.4681 30.8085C77.8892 30.8197 78.3076 30.739 78.6944 30.5721C79.0811 30.4052 79.4268 30.156 79.7075 29.8419H79.7719V30.4541C79.7719 32.0813 78.902 32.9512 77.5003 32.9512C77.0331 32.94 76.5799 32.79 76.1983 32.5203C75.8168 32.2506 75.5241 31.8734 75.3577 31.4368L73.7305 32.1135C74.0372 32.8601 74.5598 33.4982 75.2314 33.946C75.9031 34.3937 76.6931 34.6308 77.5003 34.6267C79.6914 34.6267 81.5441 33.3379 81.5441 30.1963V22.5599H79.7719V23.2527ZM77.6293 29.133C76.9833 29.0782 76.3815 28.7829 75.9429 28.3056C75.5043 27.8282 75.261 27.2036 75.261 26.5554C75.261 25.9071 75.5043 25.2825 75.9429 24.8051C76.3815 24.3278 76.9833 24.0325 77.6293 23.9777C77.9506 23.9934 78.2655 24.0736 78.5552 24.2136C78.8449 24.3536 79.1034 24.5505 79.3154 24.7925C79.5274 25.0346 79.6885 25.3168 79.789 25.6224C79.8896 25.928 79.9276 26.2508 79.9008 26.5714C79.9259 26.89 79.8865 27.2105 79.7849 27.5135C79.6834 27.8166 79.5217 28.096 79.3097 28.3352C79.0976 28.5743 78.8395 28.7682 78.5508 28.9053C78.262 29.0424 77.9486 29.1198 77.6293 29.133ZM102.01 18.0493H97.539V30.5507H99.4047V25.8143H102.01C102.538 25.8432 103.066 25.7643 103.562 25.5822C104.058 25.4002 104.512 25.1189 104.896 24.7555C105.28 24.3922 105.586 23.9544 105.795 23.4689C106.004 22.9834 106.111 22.4604 106.111 21.9318C106.111 21.4033 106.004 20.8803 105.795 20.3948C105.586 19.9093 105.28 19.4715 104.896 19.1081C104.512 18.7448 104.058 18.4635 103.562 18.2814C103.066 18.0994 102.538 18.0204 102.01 18.0493ZM102.058 24.0745H99.4047V19.7892H102.058C102.343 19.7833 102.627 19.8344 102.892 19.9394C103.157 20.0444 103.399 20.2013 103.602 20.4009C103.806 20.6004 103.968 20.8386 104.078 21.1015C104.189 21.3644 104.246 21.6467 104.246 21.9319C104.246 22.217 104.189 22.4993 104.078 22.7622C103.968 23.0251 103.806 23.2633 103.602 23.4629C103.399 23.6624 103.157 23.8193 102.892 23.9243C102.627 24.0294 102.343 24.0804 102.058 24.0745ZM113.59 22.2792C112.909 22.2395 112.231 22.3994 111.64 22.7394C111.048 23.0794 110.569 23.5846 110.261 24.1931L111.917 24.8847C112.082 24.5827 112.33 24.3351 112.633 24.1723C112.936 24.0094 113.28 23.9384 113.622 23.9679C114.095 23.9217 114.568 24.065 114.936 24.3665C115.303 24.668 115.537 25.103 115.584 25.5762V25.7049C114.985 25.3866 114.317 25.2209 113.638 25.2224C111.853 25.2224 110.036 26.2035 110.036 28.037C110.053 28.4234 110.148 28.8024 110.314 29.1515C110.481 29.5005 110.716 29.8126 111.005 30.0691C111.295 30.3256 111.633 30.5213 112 30.6447C112.366 30.768 112.754 30.8165 113.14 30.7872C113.609 30.8148 114.078 30.716 114.497 30.5011C114.915 30.2861 115.269 29.9628 115.52 29.5649H115.584V30.5299H117.386V25.7371C117.386 23.5176 115.729 22.2792 113.59 22.2792ZM113.365 29.1306C112.754 29.1306 111.901 28.8251 111.901 28.0691C111.901 27.1042 112.963 26.7342 113.88 26.7342C114.475 26.7183 115.064 26.8628 115.584 27.1524C115.516 27.6946 115.253 28.1937 114.845 28.5574C114.437 28.921 113.911 29.1246 113.365 29.1306ZM123.948 22.5526L121.808 27.9726H121.744L119.525 22.5526H117.514L120.843 30.1278L118.946 34.3416H120.892L126.022 22.5526H123.948ZM107.141 30.5507H109.006V18.0493H107.141V30.5507Z" fill="white"/>
<path d="M10.6383 8.08871C10.3104 8.48078 10.1448 8.98341 10.1755 9.49361V31.6096C10.1447 32.1198 10.3103 32.6225 10.6383 33.0145L10.7123 33.0866L23.1012 20.6978V20.4055L10.7123 8.01611L10.6383 8.08871Z" fill="url(#paint0_linear_5888_17875)"/>
<path d="M27.2309 24.8295L23.1016 20.6981V20.4058L27.2319 16.2754L27.325 16.3285L32.2178 19.1086C33.6154 19.9026 33.6154 21.2018 32.2178 21.9963L27.325 24.7764L27.2309 24.8295Z" fill="url(#paint1_linear_5888_17875)"/>
<path d="M27.3231 24.7756L23.0997 20.5518L10.6367 33.0146C10.9215 33.2658 11.2851 33.4094 11.6647 33.4206C12.0442 33.4318 12.4157 33.3099 12.7148 33.076L27.3231 24.7756Z" fill="url(#paint2_linear_5888_17875)"/>
<path d="M27.3231 16.3278L12.7148 8.02744C12.4157 7.79353 12.0442 7.67163 11.6647 7.68284C11.2851 7.69405 10.9215 7.83768 10.6367 8.08884L23.0997 20.5518L27.3231 16.3278Z" fill="url(#paint3_linear_5888_17875)"/>
<path opacity="0.2" d="M27.23 24.6826L12.7148 32.9299C12.4272 33.1488 12.0762 33.2683 11.7148 33.2702C11.3534 33.2721 11.0011 33.1564 10.7112 32.9406L10.6367 33.0151L10.7107 33.0872L10.7112 33.0867C11.0011 33.3026 11.3533 33.4184 11.7148 33.4165C12.0763 33.4145 12.4273 33.295 12.7148 33.076L27.3231 24.7756L27.23 24.6826Z" fill="#1D1D1D"/>
<path opacity="0.12" d="M10.6383 32.8693C10.3104 32.4772 10.1448 31.9746 10.1755 31.4644V31.6105C10.1448 32.1207 10.3104 32.6233 10.6383 33.0154L10.7128 32.9408L10.6383 32.8693Z" fill="#1D1D1D"/>
<path opacity="0.12" d="M32.2163 21.8495L27.2305 24.6827L27.3236 24.7757L32.2163 21.9956C32.5042 21.8707 32.7532 21.6709 32.9376 21.4171C33.122 21.1632 33.2349 20.8646 33.2646 20.5522C33.2028 20.8351 33.0758 21.0996 32.8938 21.3248C32.7119 21.55 32.4799 21.7297 32.2163 21.8495Z" fill="#1D1D1D"/>
<path opacity="0.25" d="M12.7167 8.17412L32.2178 19.2541C32.4814 19.3739 32.7135 19.5536 32.8955 19.7789C33.0774 20.0042 33.2043 20.2689 33.2661 20.5519C33.2365 20.2394 33.1237 19.9406 32.9393 19.6866C32.7549 19.4326 32.5057 19.2328 32.2178 19.108L12.7167 8.02802C11.3191 7.23393 10.1758 7.89352 10.1758 9.49432V9.64041C10.1758 8.03972 11.3191 7.38013 12.7167 8.17412Z" fill="white"/>
</g>
<defs>
<linearGradient id="paint0_linear_5888_17875" x1="22.0026" y1="9.26042" x2="5.22026" y2="26.0427" gradientUnits="userSpaceOnUse">
<stop stop-color="#00A0FF"/>
<stop offset="0.00657" stop-color="#00A1FF"/>
<stop offset="0.2601" stop-color="#00BEFF"/>
<stop offset="0.5122" stop-color="#00D2FF"/>
<stop offset="0.7604" stop-color="#00DFFF"/>
<stop offset="1" stop-color="#00E3FF"/>
</linearGradient>
<linearGradient id="paint1_linear_5888_17875" x1="34.0375" y1="20.5524" x2="9.84071" y2="20.5524" gradientUnits="userSpaceOnUse">
<stop stop-color="#FFE000"/>
<stop offset="0.4087" stop-color="#FFBD00"/>
<stop offset="0.7754" stop-color="#FFA500"/>
<stop offset="1" stop-color="#FF9C00"/>
</linearGradient>
<linearGradient id="paint2_linear_5888_17875" x1="25.0282" y1="22.8468" x2="2.27002" y2="45.605" gradientUnits="userSpaceOnUse">
<stop stop-color="#FF3A44"/>
<stop offset="1" stop-color="#C31162"/>
</linearGradient>
<linearGradient id="paint3_linear_5888_17875" x1="7.49867" y1="0.727053" x2="17.6611" y2="10.8895" gradientUnits="userSpaceOnUse">
<stop stop-color="#32A071"/>
<stop offset="0.0685" stop-color="#2DA771"/>
<stop offset="0.4762" stop-color="#15CF74"/>
<stop offset="0.8009" stop-color="#06E775"/>
<stop offset="1" stop-color="#00F076"/>
</linearGradient>
<clipPath id="clip0_5888_17875">
<rect width="134.999" height="40" fill="white" transform="translate(0.203125 0.550781)"/>
</clipPath>
</defs>
</svg>
