<svg width="33" height="34" viewBox="0 0 33 34" fill="none" xmlns="http://www.w3.org/2000/svg">
<circle cx="16.2069" cy="16.9999" r="16.2069" fill="#FF6600"/>
<path d="M17.6902 13.2422L12.8772 18.3492C12.4852 18.7652 12.2892 18.9732 12.1332 18.9112C11.9772 18.8492 11.9902 18.5692 12.0152 18.0072L12.0962 16.2352M14.3102 21.2422L19.1232 16.1352C19.5152 15.7192 19.7112 15.5112 19.8672 15.5732C20.0232 15.6352 20.0102 15.9152 19.9842 16.4772L19.9042 18.2492" stroke="white" stroke-width="1.5" stroke-linecap="round" stroke-linejoin="round"/>
<path d="M16 27.2422C21.5228 27.2422 26 22.765 26 17.2422C26 11.7193 21.5228 7.24219 16 7.24219C10.4772 7.24219 6 11.7193 6 17.2422C6 22.765 10.4772 27.2422 16 27.2422Z" stroke="white" stroke-width="1.5" stroke-linecap="round" stroke-linejoin="round"/>
</svg>
