<svg width="30" height="31" viewBox="0 0 30 31" fill="none" xmlns="http://www.w3.org/2000/svg">
<path d="M26.1947 24.8324C27.6955 23.0267 28.7393 20.8862 29.2378 18.5918C29.7363 16.2975 29.6749 13.9168 29.0587 11.6512C28.4426 9.38557 27.2898 7.30169 25.698 5.57582C24.1062 3.84995 22.122 2.53286 19.9135 1.73598C17.705 0.93909 15.337 0.685849 13.0099 0.997677C10.6828 1.30951 8.46508 2.17723 6.54426 3.52744C4.62345 4.87765 3.05608 6.67063 1.97476 8.7547C0.893445 10.8388 0.32998 13.1526 0.332037 15.5005C0.332915 18.9137 1.53569 22.2175 3.72933 24.8324L3.70843 24.8501C3.78158 24.9379 3.86518 25.0132 3.94042 25.0999C4.03447 25.2075 4.13584 25.3089 4.23302 25.4134C4.52423 25.7318 4.82728 26.0348 5.14217 26.3225C5.23971 26.4089 5.33724 26.4932 5.43477 26.5754C5.76917 26.8646 6.11402 27.1369 6.46932 27.3926C6.5153 27.424 6.5571 27.4647 6.60308 27.4971V27.4846C9.05052 29.2071 11.9703 30.1315 14.9631 30.1315C17.9559 30.1315 20.8756 29.2071 23.3231 27.4846V27.4971C23.3691 27.4647 23.4098 27.424 23.4568 27.3926C23.8121 27.1362 24.157 26.8639 24.4914 26.5754C24.5889 26.4925 24.6865 26.4082 24.784 26.3225C25.0982 26.0348 25.4012 25.7318 25.6931 25.4134C25.7903 25.3089 25.8906 25.2075 25.9857 25.0999C26.0599 25.0132 26.1446 24.9379 26.2177 24.8491L26.1947 24.8324ZM14.962 7.14052C15.8921 7.14052 16.8013 7.41632 17.5746 7.93304C18.3479 8.44975 18.9507 9.18418 19.3066 10.0435C19.6625 10.9027 19.7556 11.8482 19.5742 12.7604C19.3927 13.6726 18.9449 14.5105 18.2872 15.1682C17.6295 15.8258 16.7916 16.2737 15.8794 16.4552C14.9673 16.6366 14.0217 16.5435 13.1625 16.1876C12.3032 15.8316 11.5688 15.2289 11.0521 14.4556C10.5353 13.6823 10.2595 12.7731 10.2595 11.843C10.2595 10.5958 10.755 9.39974 11.6369 8.51785C12.5188 7.63596 13.7149 7.14052 14.962 7.14052ZM6.60935 24.8324C6.62748 23.4603 7.18509 22.1504 8.16155 21.1863C9.13801 20.2222 10.4548 19.6812 11.827 19.6805H18.097C19.4693 19.6812 20.7861 20.2222 21.7625 21.1863C22.739 22.1504 23.2966 23.4603 23.3147 24.8324C21.0229 26.8976 18.0471 28.0406 14.962 28.0406C11.8769 28.0406 8.9012 26.8976 6.60935 24.8324Z" fill="black"/>
</svg>
