<svg width="10" height="12" viewBox="0 0 10 12" fill="none" xmlns="http://www.w3.org/2000/svg">
<path d="M4.99833 8.15327C4.81655 8.15334 4.63876 8.10006 4.48698 8.00003C4.3352 7.9 4.21612 7.75763 4.1445 7.59056C3.99468 7.55525 3.84721 7.51059 3.70297 7.45684L3.69508 7.45406C3.27144 7.29508 2.88043 7.06 2.54133 6.76042C2.08697 6.35961 1.73756 5.85373 1.52357 5.2869C1.30957 4.72007 1.23749 4.1095 1.3136 3.50842C1.38972 2.90734 1.61172 2.33401 1.96024 1.83841C2.30877 1.34282 2.77324 0.940001 3.31316 0.665093C3.85308 0.390184 4.45206 0.251529 5.05786 0.261217C5.66366 0.270905 6.25789 0.428642 6.78874 0.720674C7.3196 1.01271 7.77095 1.43017 8.10345 1.93666C8.43595 2.44314 8.63951 3.02328 8.69636 3.62649C8.71447 3.81824 8.55708 3.9747 8.3644 3.9747C8.17218 3.9747 8.0185 3.81824 7.99622 3.62695C7.93484 3.09919 7.73522 2.59699 7.41753 2.17112C7.09984 1.74524 6.67535 1.41079 6.18697 1.20156C5.69858 0.992334 5.16362 0.915753 4.63615 0.97956C4.10868 1.04337 3.6074 1.2453 3.18299 1.56494C2.75858 1.88459 2.42608 2.31061 2.21911 2.79996C2.01213 3.2893 1.93802 3.82461 2.00425 4.35178C2.07048 4.87896 2.27472 5.3793 2.59632 5.80223C2.91791 6.22516 3.34546 6.55569 3.83575 6.76042L3.85433 6.76831C3.94718 6.80638 4.04283 6.83981 4.14033 6.86906C4.22977 6.65114 4.39869 6.47535 4.61288 6.3773C4.82706 6.27926 5.07051 6.26628 5.29391 6.341C5.51731 6.41573 5.70396 6.57256 5.81606 6.77974C5.92815 6.98692 5.95732 7.22896 5.89765 7.45684C5.84617 7.65621 5.72989 7.83281 5.5671 7.95887C5.4043 8.08494 5.20423 8.15333 4.99833 8.15327ZM1.74833 7.45684H2.29108C2.03138 7.25465 1.795 7.02419 1.58629 6.7697C1.24723 6.80942 0.934559 6.97227 0.707658 7.22733C0.480757 7.48239 0.355427 7.81189 0.355469 8.15327V8.48524C0.355469 10.2115 2.31011 11.4033 4.99833 11.4033C7.68654 11.4033 9.64118 10.146 9.64118 8.48524V8.15327C9.64118 7.78386 9.49444 7.42959 9.23322 7.16837C8.97201 6.90716 8.61773 6.76042 8.24833 6.76042H6.556C6.62329 6.98612 6.64072 7.22374 6.60708 7.45684H8.24833L8.31565 7.46009C8.48789 7.47682 8.64773 7.55708 8.76403 7.68522C8.88033 7.81337 8.94476 7.98022 8.94475 8.15327V8.48524L8.94243 8.55999C8.87743 9.72999 7.2854 10.7068 4.99833 10.7068C2.62536 10.7068 1.0519 9.72674 1.0519 8.48524V8.15327L1.05515 8.08595C1.07188 7.91371 1.15213 7.75387 1.28028 7.63757C1.40842 7.52127 1.57527 7.45684 1.74833 7.45684ZM7.31975 3.9747C7.31983 4.39524 7.20566 4.8079 6.98945 5.16861C6.77324 5.52931 6.46311 5.82451 6.09218 6.02267C5.79324 5.74993 5.40299 5.59903 4.99833 5.5997C5.21172 5.5997 5.42303 5.55767 5.62019 5.47601C5.81734 5.39434 5.99648 5.27465 6.14737 5.12375C6.29827 4.97285 6.41797 4.79372 6.49963 4.59656C6.58129 4.39941 6.62333 4.1881 6.62333 3.9747C6.62333 3.7613 6.58129 3.55 6.49963 3.35284C6.41797 3.15569 6.29827 2.97655 6.14737 2.82565C5.99648 2.67476 5.81734 2.55506 5.62019 2.4734C5.42303 2.39173 5.21172 2.3497 4.99833 2.3497C4.56735 2.3497 4.15402 2.52091 3.84928 2.82565C3.54453 3.1304 3.37333 3.54372 3.37333 3.9747C3.37333 4.40568 3.54453 4.819 3.84928 5.12375C4.15402 5.4285 4.56735 5.5997 4.99833 5.5997C4.57675 5.5997 4.19325 5.76034 3.90493 6.02313C3.53452 5.82467 3.22461 5.52983 3.00793 5.16977C2.82383 4.86306 2.7131 4.51794 2.68439 4.16136C2.65568 3.80479 2.70976 3.4464 2.84242 3.11418C2.97508 2.78195 3.18272 2.48488 3.44915 2.24616C3.71557 2.00743 4.03356 1.8335 4.37829 1.73796C4.72302 1.64241 5.08518 1.62782 5.43648 1.69534C5.78778 1.76286 6.11872 1.91066 6.40347 2.12719C6.68823 2.34372 6.91909 2.62313 7.07803 2.94361C7.23697 3.26409 7.3197 3.61697 7.31975 3.9747Z" fill="#031942"/>
</svg>
